<svg width="142" height="32" viewBox="0 0 142 32" fill="none" xmlns="http://www.w3.org/2000/svg">
<path d="M25.2807 22.2265V22.2027C25.2807 19.5143 23.3993 18.063 20.4127 18.063H14.7451V31.6003H17.6847V26.5804H19.2603L22.5997 31.6003H26.0332L22.3646 26.2235C23.9872 25.6049 25.2807 24.344 25.2807 22.2265ZM22.294 22.2741C22.294 23.3447 21.4474 23.8919 20.201 23.8919H17.6847V20.7277H20.154C21.4944 20.7277 22.3175 21.1321 22.3175 22.2503V22.2741H22.294ZM6.72583 23.9395H12.2993V29.5305C10.9824 30.6487 9.14807 31.5765 6.79638 31.5765C2.77499 31.5765 0 28.7216 0 24.8912V24.8436C0 21.1083 2.84554 18.0868 6.77286 18.0868C9.10103 18.0868 10.4885 18.7292 11.829 19.8712L10.0652 22.06C9.054 21.2273 8.16036 20.7277 6.70231 20.7277C4.63283 20.7277 2.96313 22.5834 2.96313 24.8198V24.8436C2.96313 27.2465 4.58579 28.9833 6.91396 28.9833C7.94871 28.9833 8.86587 28.7454 9.57137 28.222V26.4376H6.72583V23.9395ZM50.9141 18.0392H53.8302V25.4622C53.8302 29.5543 51.5725 31.5765 47.9509 31.5765C44.3764 31.5765 42.1658 29.5305 42.1658 25.5573V18.0392H45.1054V25.4622C45.1054 27.6748 46.1872 28.793 47.998 28.793C49.8088 28.793 50.8905 27.7223 50.8905 25.5573C50.9141 25.5811 50.9141 18.0392 50.9141 18.0392ZM61.7553 18.0392H56.0878V31.5765H59.0274V26.9848H61.4731C63.9894 26.9848 66.5998 25.4622 66.5998 22.4169V22.3931C66.5998 19.7284 64.7185 18.0392 61.7553 18.0392ZM63.6367 22.4882C63.6367 23.5589 62.9547 24.344 61.5437 24.344H59.0274V20.7277H61.4731C62.9782 20.7277 63.6367 21.37 63.6367 22.4644V22.4882ZM33.4645 18.0392C29.4667 18.0392 26.5741 21.0845 26.5741 24.796V24.8436C26.5741 28.555 29.4196 31.5765 33.4175 31.5765C37.4154 31.5765 40.3079 28.5313 40.3079 24.7722V24.7484C40.3079 21.0608 37.4624 18.0392 33.4645 18.0392ZM37.3448 24.8674C37.3448 27.1038 35.7221 28.9357 33.4645 28.9357C31.1599 28.9357 29.5137 27.0562 29.5137 24.8198V24.796C29.5137 22.5596 31.1364 20.7039 33.394 20.7039C35.6986 20.7039 37.3448 22.5834 37.3448 24.8198V24.8674ZM32.3592 1.0284L26.6681 14.5657H29.6783L30.9012 11.5204H36.5452L37.7681 14.5657H40.8253L35.1342 1.0284H32.3592ZM31.9359 8.90335L33.6997 4.50195L35.4635 8.90335H31.9359ZM113.845 0.957031L108.107 14.5657H111.117L112.34 11.5204H117.984L119.207 14.5657H122.264L116.573 0.957031H113.845ZM113.375 8.90335L115.139 4.50195L116.949 8.90335H113.375ZM95.2669 5.21569V5.1919C95.2669 2.50347 93.3856 1.0522 90.3989 1.0522H84.7313V14.5895H87.6709V9.56951H89.2466L92.586 14.5895H96.0194L92.3508 9.21264C93.997 8.59407 95.2669 7.33312 95.2669 5.21569ZM92.3038 5.26327C92.3038 6.33388 91.4572 6.88109 90.2108 6.88109H87.6945V3.71683H90.1402C91.4807 3.71683 92.3038 4.12129 92.3038 5.23948V5.26327ZM16.65 14.5657H13.7103V1.0284H16.65V6.38147H22.4351V1.0284H25.3747V14.5657H22.4351V9.11748H16.65V14.5657ZM54.8179 14.5657V6.2863L50.5848 14.5657H49.2679L45.0819 6.33388V14.5657H42.1658V1.0284H45.5052L50.0439 10.0929L54.3475 1.0284H57.734V14.5657H54.8179ZM141.101 1.0284V14.5657H138.609L132.141 5.97701V14.5657H129.225V1.0284H131.953L138.209 9.37918V1.0284H141.101ZM0 7.83274V7.80895C0 4.12128 2.75148 1.07599 6.72583 1.07599C9.14807 1.07599 10.5826 1.88489 11.8055 3.07446L9.99468 5.16811C8.98345 4.26403 7.99574 3.69304 6.70231 3.69304C4.51524 3.69304 2.96313 5.52498 2.96313 7.76137V7.78516C2.96313 10.0216 4.49173 11.8773 6.70231 11.8773C8.18388 11.8773 9.07752 11.2825 10.0887 10.3546L11.876 12.1866C10.5591 13.614 9.07752 14.4943 6.58473 14.4943C2.82203 14.5419 0 11.568 0 7.83274ZM75.6068 11.9249H82.8735V14.5657H72.6907V1.0284H82.8029V3.66925H75.6303V6.40526H81.9328V9.0461H75.6303L75.6068 11.9249ZM100.464 11.8535H107.213V14.5657H97.5245V1.0284H100.464V11.8535ZM123.722 1.0284H126.662V14.5657H123.722V1.0284ZM68.7399 7.6662C69.9863 7.02384 70.7388 5.90564 70.7388 4.57332V4.54953C70.7388 2.45589 69.1396 1.0522 66.3411 1.0522H60.1797V14.5895H65.9413C68.975 14.5895 70.974 13.3523 70.974 10.878V10.8067C70.9504 9.23643 70.1273 8.2372 68.7399 7.6662ZM63.0253 3.66925H65.8943C67.1172 3.66925 67.7992 4.16887 67.7992 5.04915V5.07294C67.7992 6.16734 66.9761 6.61938 65.7062 6.61938H63.0253V3.66925ZM68.0108 10.4736C68.0108 11.4966 67.2583 11.9487 65.9413 11.9487H63.0488V8.99852H65.8708C67.3759 8.99852 68.0343 9.54572 68.0343 10.4736H68.0108Z" fill="#F9F7F3"/>
</svg>
