<svg width="63" height="62" viewBox="0 0 63 62" fill="none" xmlns="http://www.w3.org/2000/svg">
<path d="M11.3126 10.3878C12.3296 9.37084 13.8292 8.79717 15.8227 8.75407C17.8249 8.71077 20.2457 9.20888 22.9436 10.2538C28.3361 12.3422 34.6096 16.5274 40.4326 22.3504C46.2556 28.1734 50.4407 34.4468 52.5292 39.8393C53.5741 42.5373 54.0722 44.9581 54.0289 46.9603C53.9858 48.9538 53.4121 50.4534 52.3951 51.4704C51.3782 52.4874 49.8786 53.061 47.885 53.1041C45.8828 53.1474 43.4621 52.6493 40.7641 51.6044C35.3716 49.516 29.0981 45.3308 23.2751 39.5079C17.4521 33.6849 13.267 27.4114 11.1785 22.0189C10.1336 19.3209 9.63553 16.9002 9.67883 14.8979C9.72193 12.9044 10.2956 11.4048 11.3126 10.3878Z" fill="#C4C4C4" stroke="black" stroke-width="2.5"/>
<g style="mix-blend-mode:multiply">
<path d="M52.3959 10.3912C53.4129 11.4082 53.9865 12.9078 54.0296 14.9013C54.0729 16.9035 53.5748 19.3243 52.5299 22.0223C50.4415 27.4147 46.2563 33.6882 40.4333 39.5112C34.6103 45.3342 28.3368 49.5194 22.9444 51.6078C20.2464 52.6527 17.8256 53.1508 15.8234 53.1075C13.8299 53.0644 12.3303 52.4908 11.3133 51.4738C10.2963 50.4568 9.72265 48.9572 9.67955 46.9636C9.63625 44.9614 10.1344 42.5407 11.1793 39.8427C13.2677 34.4502 17.4529 28.1767 23.2758 22.3537C29.0988 16.5308 35.3723 12.3456 40.7648 10.2572C43.4628 9.21226 45.8835 8.71415 47.8857 8.75745C49.8793 8.80055 51.3789 9.37422 52.3959 10.3912Z" fill="#C4C4C4"/>
<path d="M52.3959 10.3912C53.4129 11.4082 53.9865 12.9078 54.0296 14.9013C54.0729 16.9035 53.5748 19.3243 52.5299 22.0223C50.4415 27.4147 46.2563 33.6882 40.4333 39.5112C34.6103 45.3342 28.3368 49.5194 22.9444 51.6078C20.2464 52.6527 17.8256 53.1508 15.8234 53.1075C13.8299 53.0644 12.3303 52.4908 11.3133 51.4738C10.2963 50.4568 9.72265 48.9572 9.67955 46.9636C9.63625 44.9614 10.1344 42.5407 11.1793 39.8427C13.2677 34.4502 17.4529 28.1767 23.2758 22.3537C29.0988 16.5308 35.3723 12.3456 40.7648 10.2572C43.4628 9.21226 45.8835 8.71415 47.8857 8.75745C49.8793 8.80055 51.3789 9.37422 52.3959 10.3912Z" stroke="black" stroke-width="2.5"/>
</g>
</svg>
