<svg xmlns="http://www.w3.org/2000/svg" fill="none" viewBox="8.43 7.5 46.86 46.86">
<path d="M10.4287 9.50395C15.6548 4.27788 29.4837 9.63369 41.3165 21.4665C53.1493 33.2993 58.5051 47.1282 53.279 52.3543C48.053 57.5803 34.224 52.2245 22.3912 40.3917C10.5585 28.5589 5.20264 14.73 10.4287 9.50395Z" fill="#C4C4C4"/>
<path fill-rule="evenodd" clip-rule="evenodd" d="M15.8497 10.0038C14.079 10.0421 12.9239 10.5442 12.1965 11.2717C11.469 11.9992 10.9668 13.1542 10.9285 14.925C10.8899 16.7131 11.3368 18.9663 12.3442 21.5674C14.3563 26.7628 18.4294 32.8944 24.159 38.624C29.8886 44.3535 36.0201 48.4267 41.2155 50.4388C43.8167 51.4462 46.0699 51.8931 47.858 51.8544C49.6288 51.8161 50.7838 51.314 51.5113 50.5865C52.2387 49.859 52.7409 48.704 52.7792 46.9332C52.8179 45.1451 52.371 42.8919 51.3636 40.2908C49.3514 35.0954 45.2783 28.9638 39.5487 23.2342C33.8191 17.5047 27.6876 13.4315 22.4922 11.4194C19.8911 10.412 17.6379 9.96511 15.8497 10.0038ZM41.3165 21.4665C29.4837 9.63369 15.6548 4.27788 10.4287 9.50395C5.20264 14.73 10.5585 28.5589 22.3912 40.3917C34.224 52.2245 48.053 57.5803 53.279 52.3543C58.5051 47.1282 53.1493 33.2993 41.3165 21.4665Z" fill="black"/>
<g style="mix-blend-mode:multiply">
<path d="M53.2797 9.50732C58.5058 14.7334 53.15 28.5623 41.3172 40.3951C29.4844 52.2279 15.6555 57.5837 10.4294 52.3576C5.20336 47.1316 10.5592 33.3026 22.392 21.4699C34.2247 9.63707 48.0537 4.28126 53.2797 9.50732Z" fill="#C4C4C4"/>
</g>
<g style="mix-blend-mode:multiply">
<path fill-rule="evenodd" clip-rule="evenodd" d="M52.7799 14.9283C52.7416 13.1576 52.2394 12.0026 51.512 11.2751C50.7845 10.5476 49.6295 10.0454 47.8587 10.0072C46.0706 9.96849 43.8174 10.4154 41.2163 11.4228C36.0209 13.4349 29.8893 17.508 24.1597 23.2376C18.4301 28.9672 14.357 35.0988 12.3449 40.2942C11.3375 42.8953 10.8906 45.1485 10.9293 46.9366C10.9675 48.7074 11.4697 49.8624 12.1972 50.5899C12.9247 51.3173 14.0797 51.8195 15.8504 51.8578C17.6386 51.8965 19.8918 51.4496 22.4929 50.4422C27.6883 48.4301 33.8199 44.3569 39.5494 38.6273C45.279 32.8978 49.3522 26.7662 51.3643 21.5708C52.3717 18.9697 52.8186 16.7165 52.7799 14.9283ZM41.3172 40.3951C53.15 28.5623 58.5058 14.7334 53.2797 9.50732C48.0537 4.28126 34.2247 9.63707 22.392 21.4699C10.5592 33.3026 5.20336 47.1316 10.4294 52.3576C15.6555 57.5837 29.4844 52.2279 41.3172 40.3951Z" fill="black"/>
</g>
</svg>