<svg width="45" height="45" viewBox="0 0 45 45" fill="none" xmlns="http://www.w3.org/2000/svg">
<g style="mix-blend-mode:multiply">
<mask id="path-1-inside-1_193_2378" fill="white">
<path fill-rule="evenodd" clip-rule="evenodd" d="M22.9798 44.9497C18.9541 42.2401 14.8624 38.8794 10.9429 34.96C7.02531 31.0424 3.66598 26.9527 0.957031 22.9288C3.66622 18.9042 7.02605 14.8138 10.9444 10.8955C14.8634 6.97651 18.9545 3.61618 22.9798 0.906739C27.0035 3.61563 31.0931 6.97487 35.0105 10.8923C38.9299 14.8117 42.2904 18.9032 45 22.9288C42.2907 26.9537 38.9306 31.0445 35.012 34.9631C31.094 38.8811 27.004 42.2406 22.9798 44.9497Z"/>
</mask>
<path fill-rule="evenodd" clip-rule="evenodd" d="M22.9798 44.9497C18.9541 42.2401 14.8624 38.8794 10.9429 34.96C7.02531 31.0424 3.66598 26.9527 0.957031 22.9288C3.66622 18.9042 7.02605 14.8138 10.9444 10.8955C14.8634 6.97651 18.9545 3.61618 22.9798 0.906739C27.0035 3.61563 31.0931 6.97487 35.0105 10.8923C38.9299 14.8117 42.2904 18.9032 45 22.9288C42.2907 26.9537 38.9306 31.0445 35.012 34.9631C31.094 38.8811 27.004 42.2406 22.9798 44.9497Z" fill="#979797"/>
<path d="M22.9798 44.9497L21.5839 47.0237L22.9799 47.9633L24.3759 47.0236L22.9798 44.9497ZM10.9429 34.96L9.17516 36.7277V36.7277L10.9429 34.96ZM0.957031 22.9288L-1.11685 21.5327L-2.05667 22.9289L-1.1168 24.3249L0.957031 22.9288ZM22.9798 0.906739L24.376 -1.16709L22.9799 -2.10693L21.5838 -1.1672L22.9798 0.906739ZM35.0105 10.8923L36.7783 9.12458L35.0105 10.8923ZM45 22.9288L47.0739 24.3248L48.0136 22.9289L47.074 21.5328L45 22.9288ZM35.012 34.9631L36.7797 36.7309L35.012 34.9631ZM24.3757 42.8757C20.4904 40.2606 16.5224 37.0039 12.7107 33.1922L9.17516 36.7277C13.2024 40.755 17.4177 44.2196 21.5839 47.0237L24.3757 42.8757ZM12.7107 33.1922C8.90078 29.3823 5.64534 25.4162 3.03087 21.5327L-1.1168 24.3249C1.68662 28.4892 5.14985 32.7024 9.17516 36.7277L12.7107 33.1922ZM3.03092 24.3249C5.64562 20.4407 8.90154 16.4739 12.7121 12.6633L9.17658 9.12775C5.15056 13.1538 1.68683 17.3678 -1.11685 21.5327L3.03092 24.3249ZM12.7121 12.6633C16.5234 8.85202 20.4909 5.59562 24.3758 2.98068L21.5838 -1.1672C17.4181 1.63675 13.2033 5.10101 9.17658 9.12775L12.7121 12.6633ZM21.5836 2.98056C25.4671 5.59499 29.433 8.85034 33.2428 12.6601L36.7783 9.12458C32.7531 5.09941 28.54 1.63628 24.376 -1.16709L21.5836 2.98056ZM33.2428 12.6601C37.0544 16.4717 40.311 20.4396 42.926 24.3247L47.074 21.5328C44.2699 17.3668 40.8054 13.1517 36.7783 9.12458L33.2428 12.6601ZM42.9261 21.5328C40.3113 25.4173 37.0551 29.3845 33.2442 33.1954L36.7797 36.7309C40.8061 32.7045 44.2701 28.4901 47.0739 24.3248L42.9261 21.5328ZM33.2442 33.1954C29.434 37.0056 25.4676 40.2613 21.5837 42.8758L24.3759 47.0236C28.5405 44.22 32.7541 40.7565 36.7797 36.7309L33.2442 33.1954Z" fill="black" mask="url(#path-1-inside-1_193_2378)"/>
</g>
</svg>
