<svg width="75" height="44" viewBox="0 0 75 44" fill="none" xmlns="http://www.w3.org/2000/svg">
<path d="M63.6965 41.2085L24.9062 21.9298L63.6965 2.65105L63.6965 41.2085Z" fill="#F9F7F3" stroke="black" stroke-width="2.5"/>
<path d="M65.246 1.94949C66.1313 1.94949 67.0705 2.35046 68.0314 3.27072C68.9986 4.19698 69.9266 5.59689 70.7331 7.42293C72.3446 11.0717 73.3729 16.1999 73.3729 21.9306C73.3729 27.6613 72.3446 32.7895 70.7331 36.4382C69.9266 38.2642 68.9986 39.6641 68.0314 40.5904C67.0705 41.5106 66.1313 41.9116 65.246 41.9116C64.3608 41.9116 63.4216 41.5106 62.4607 40.5904C61.4935 39.6641 60.5655 38.2642 59.759 36.4382C58.1475 32.7895 57.1191 27.6613 57.1191 21.9306C57.1191 16.1999 58.1475 11.0717 59.759 7.42294C60.5655 5.59689 61.4935 4.19698 62.4607 3.27072C63.4216 2.35046 64.3608 1.94949 65.246 1.94949Z" fill="#C4C4C4" stroke="black" stroke-width="2.5"/>
<path d="M41.7473 41.2085L2.95703 21.9298L41.7473 2.65105L41.7473 41.2085Z" fill="#F9F7F3" stroke="black" stroke-width="2.5"/>
<path d="M43.2968 1.94949C44.1821 1.94949 45.1212 2.35046 46.0822 3.27072C47.0494 4.19698 47.9774 5.59689 48.7839 7.42293C50.3953 11.0717 51.4237 16.1999 51.4237 21.9306C51.4237 27.6613 50.3953 32.7895 48.7839 36.4382C47.9774 38.2642 47.0494 39.6641 46.0822 40.5904C45.1212 41.5106 44.1821 41.9116 43.2968 41.9116C42.4116 41.9116 41.4724 41.5106 40.5115 40.5904C39.5443 39.6641 38.6163 38.2642 37.8098 36.4382C36.1983 32.7895 35.1699 27.6613 35.1699 21.9306C35.1699 16.1999 36.1983 11.0717 37.8098 7.42294C38.6163 5.59689 39.5443 4.19698 40.5115 3.27072C41.4724 2.35046 42.4116 1.94949 43.2968 1.94949Z" fill="#C4C4C4" stroke="black" stroke-width="2.5"/>
</svg>
