<svg width="150" height="151" viewBox="0 0 150 151" fill="none" xmlns="http://www.w3.org/2000/svg">
<path d="M25.7744 22.3648L30.2117 29.4982L22.3434 26.3625L21.0665 27.8503L25.3595 35.1519L17.6356 31.848L16.0367 33.711L27.3731 38.4078L28.8609 36.6742L24.8802 29.8203L32.2475 32.7282L33.7353 30.9946L27.3733 20.5018L25.7744 22.3648Z" fill="#4690FF"/>
<path d="M37.0698 14.0187C34.2597 15.827 33.4338 19.5213 35.2421 22.3313C37.0504 25.1414 40.7548 25.9202 43.5649 24.1119C46.3749 22.3036 47.2008 18.6093 45.3926 15.7993C43.5843 12.9892 39.8798 12.2104 37.0698 14.0187ZM42.3932 22.2911C40.6154 23.4351 38.3646 22.8359 37.2205 21.0581C36.0765 19.2804 36.4637 16.9835 38.2415 15.8395C40.0192 14.6955 42.27 15.2947 43.4141 17.0725C44.5581 18.8502 44.1709 21.1471 42.3932 22.2911Z" fill="#4690FF"/>
<path d="M59.5099 16.9208L62.1771 16.0267L57.9991 13.0578C59.108 12.0208 59.5529 10.5589 59.0381 9.02329C58.2795 6.76022 55.9543 5.88541 53.4811 6.71452L48.8418 8.26978L52.5267 19.2618L54.7251 18.5249L53.5546 15.0333L55.8177 14.2746L59.5099 16.9208ZM51.723 9.56956L54.0831 8.77838C55.2954 8.37195 56.5198 8.69873 56.8721 9.74944C57.2243 10.8002 56.4443 11.7989 55.2319 12.2053L52.8718 12.9965L51.723 9.56956Z" fill="#4690FF"/>
<path d="M73.7031 14.9281L76.6593 14.681L71.1233 8.62542L75.2179 3.16775L72.4486 3.39924L67.751 9.62586L67.2668 3.83238L64.9562 4.02552L65.9218 15.5785L68.2324 15.3854L68.0137 12.7689L69.7221 10.4876L73.7031 14.9281Z" fill="#4690FF"/>
<path d="M106.812 10.426L101.714 17.1029L101.858 8.63404L100.015 7.96714L94.7079 14.5687L95.0607 6.17522L92.752 5.34015L92.3767 17.6053L94.525 18.3824L99.5238 12.2314L99.4149 20.1511L101.563 20.9282L109.121 11.261L106.812 10.426Z" fill="#4690FF"/>
<path d="M113.378 14.6207L107.035 24.3253L108.976 25.5937L115.319 15.8891L113.378 14.6207Z" fill="#4690FF"/>
<path d="M129.048 27.7544L121.723 20.6626L120.229 22.2059L123.058 24.9454L116.488 31.731L118.154 33.3439L124.724 26.5582L127.553 29.2977L129.048 27.7544Z" fill="#4690FF"/>
<path d="M137.515 40.0163L133.402 42.6033L130.552 38.0719L134.665 35.4848L133.43 33.5221L123.617 39.6948L124.851 41.6575L128.733 39.2156L131.584 43.7471L127.702 46.1889L128.936 48.1516L138.75 41.9789L137.515 40.0163Z" fill="#4690FF"/>
<path d="M146.618 69.4699L146.239 67.1824L139.949 68.2242C137.998 68.5474 136.547 67.6125 136.265 65.9137C135.984 64.2149 137.059 62.8791 139.01 62.556L145.3 61.5141L144.922 59.2266L138.631 60.2685C135.267 60.8256 133.622 63.2063 134.129 66.2675C134.639 69.3455 136.963 71.0689 140.327 70.5117L146.618 69.4699Z" fill="#4690FF"/>
<path d="M146.492 81.5357C146.692 78.9007 145.398 77.0411 143.188 76.8729C141.403 76.7371 140.17 77.6521 139.554 79.9135L139.055 81.7563C138.739 82.9804 138.19 83.2293 137.68 83.1905C136.864 83.1285 136.461 82.3625 136.558 81.0876C136.679 79.4896 137.509 78.4755 138.73 78.3803L138.905 76.0854C136.41 76.0665 134.729 77.9391 134.511 80.795C134.304 83.515 135.595 85.4256 137.788 85.5925C139.692 85.7374 140.657 84.5114 141.288 82.2853L141.664 80.946C141.969 79.8579 142.372 79.273 143.205 79.3364C144.157 79.4088 144.587 80.2793 144.49 81.5543C144.379 83.0163 143.664 83.6459 142.581 83.7174L142.407 86.0123C145.386 85.9654 146.343 83.4906 146.492 81.5357Z" fill="#4690FF"/>
<path d="M124.849 127.059L120.328 119.979L128.233 123.021L129.492 121.518L125.113 114.268L132.875 117.48L134.452 115.598L123.061 111.036L121.593 112.787L125.655 119.594L118.254 116.773L116.787 118.524L123.272 128.941L124.849 127.059Z" fill="#4690FF"/>
<path d="M113.656 135.545C116.445 133.703 117.227 130 115.386 127.211C113.544 124.423 109.831 123.688 107.042 125.529C104.254 127.371 103.472 131.075 105.313 133.863C107.155 136.651 110.868 137.386 113.656 135.545ZM108.235 127.336C110 126.171 112.257 126.744 113.422 128.508C114.587 130.272 114.227 132.573 112.463 133.738C110.699 134.903 108.441 134.331 107.276 132.566C106.111 130.802 106.471 128.501 108.235 127.336Z" fill="#4690FF"/>
<path d="M91.1785 132.901L88.5221 133.826L92.7349 136.745C91.6385 137.796 91.2108 139.263 91.7438 140.792C92.5292 143.046 94.8645 143.893 97.3277 143.035L101.948 141.425L98.1335 130.477L95.944 131.24L97.1557 134.717L94.9018 135.503L91.1785 132.901ZM99.0519 140.159L96.7014 140.978C95.4939 141.399 94.2657 141.087 93.9011 140.04C93.5364 138.994 94.3046 137.986 95.5121 137.565L97.8626 136.746L99.0519 140.159Z" fill="#4690FF"/>
<path d="M77.0124 135.068L74.0593 135.35L79.6667 141.34L75.6369 146.845L78.4033 146.581L83.0268 140.299L83.5797 146.087L85.8878 145.866L84.7854 134.325L82.4773 134.546L82.7269 137.159L81.0457 139.461L77.0124 135.068Z" fill="#4690FF"/>
<path d="M43.9595 139.958L48.9785 133.221L48.9344 141.691L50.7859 142.336L56.0141 135.672L55.7608 144.069L58.0792 144.877L58.3092 132.608L56.1518 131.856L51.2263 138.066L51.2414 130.146L49.084 129.394L41.6412 139.15L43.9595 139.958Z" fill="#4690FF"/>
<path d="M37.3446 135.845L43.5716 126.065L41.6158 124.82L35.3888 134.599L37.3446 135.845Z" fill="#4690FF"/>
<path d="M21.5204 122.899L28.9284 129.904L30.4043 128.343L27.5427 125.637L34.0319 118.774L32.3471 117.181L25.8579 124.044L22.9963 121.338L21.5204 122.899Z" fill="#4690FF"/>
<path d="M12.9084 110.727L16.9905 108.091L19.8942 112.589L15.8122 115.224L17.0699 117.172L26.8095 110.884L25.5518 108.936L21.6989 111.424L18.7951 106.926L22.648 104.439L21.3903 102.491L11.6508 108.779L12.9084 110.727Z" fill="#4690FF"/>
<path d="M3.45494 81.3842L3.86084 83.6671L10.1387 82.5508C12.0858 82.2046 13.5477 83.1222 13.8491 84.8176C14.1506 86.5129 13.0916 87.8614 11.1445 88.2076L4.86663 89.3238L5.27253 91.6067L11.5504 90.4905C14.9075 89.8935 16.5241 87.4935 15.9809 84.4385C15.4347 81.3668 13.0899 79.6711 9.73277 80.268L3.45494 81.3842Z" fill="#4690FF"/>
<path d="M3.43848 69.3281C3.2692 71.9653 4.58588 73.8094 6.79769 73.9514C8.58415 74.0661 9.80553 73.1365 10.3953 70.8681L10.8727 69.0195C11.1737 67.7916 11.7196 67.5363 12.2301 67.569C13.0467 67.6214 13.4592 68.3825 13.3772 69.6586C13.2746 71.2579 12.4572 72.2817 11.2372 72.3913L11.0897 74.6882C13.5847 74.6775 15.2437 72.7852 15.4272 69.9268C15.6019 67.2046 14.2885 65.3094 12.0937 65.1685C10.1882 65.0462 9.23746 66.2836 8.63283 68.5169L8.27324 69.8606C7.98108 70.9523 7.58447 71.5418 6.75079 71.4883C5.79801 71.4272 5.35812 70.5618 5.44002 69.2858C5.53394 67.8226 6.24117 67.1846 7.32288 67.1003L7.47031 64.8034C4.49242 64.8856 3.56407 67.3715 3.43848 69.3281Z" fill="#4690FF"/>
</svg>
