<svg width="96" height="96" viewBox="0 0 96 96" fill="none" xmlns="http://www.w3.org/2000/svg">
<path fill-rule="evenodd" clip-rule="evenodd" d="M25.6235 89.5553C48.6549 102.016 77.4266 93.4458 89.8868 70.4142C102.347 47.3827 93.7773 18.6109 70.7459 6.15058C47.7145 -6.3097 18.9428 2.26003 6.48258 25.2916C-5.97763 48.3232 2.59205 77.095 25.6235 89.5553ZM21.3041 47.2617C21.3041 32.5099 33.2408 21.431 48.3888 21.431C63.5369 21.431 74.6252 31.9078 74.6252 46.78C74.6252 54.4268 71.7168 60.1469 64.2034 60.1469C59.5378 60.1469 56.8717 58.5212 55.3569 56.1729C53.2362 58.5814 49.9642 60.0867 46.3287 60.0867C39.2394 60.0867 33.9679 54.487 33.9679 47.4423C33.9679 40.3374 39.2394 34.7377 46.3287 34.7377C49.1159 34.7377 51.6608 35.5807 53.5998 37.0257V35.2796H60.6285V49.1884C60.6285 52.8613 62.0221 54.3064 64.2034 54.3064C67.536 54.3064 68.9296 51.5367 68.9296 46.9004C68.9296 35.2194 60.2043 26.9102 48.3888 26.9102C36.5128 26.9102 27.121 35.8215 27.121 47.2617C27.121 58.8222 36.6339 67.5529 47.9647 67.5529C52.6909 67.5529 57.3565 66.0476 61.0526 63.2176L64.2034 67.9743C59.659 71.286 53.9633 73.0321 48.0859 73.0321C33.362 73.0321 21.3041 62.1338 21.3041 47.2617ZM41.1178 47.3821C41.1178 51.4764 44.3292 53.8247 47.4799 53.8247C49.3583 53.8247 51.9638 52.9817 53.7209 50.212C53.5998 49.369 53.5998 48.4659 53.5998 47.5627V44.4317C52.0244 41.9631 49.6007 40.8793 47.4799 40.8793C44.3897 40.8793 41.1178 43.2877 41.1178 47.3821Z" fill="#4690FF"/>
</svg>
