<svg width="35" height="35" viewBox="0 0 35 35" fill="none" xmlns="http://www.w3.org/2000/svg">
<g clip-path="url(#clip0_193_2328)">
<path d="M17.957 4.01885C22.4992 4.01885 23.0371 4.03877 24.8234 4.11846C26.4836 4.1915 27.3801 4.47041 27.9777 4.70283C28.768 5.0083 29.3391 5.38018 29.9301 5.97119C30.5277 6.56885 30.893 7.1333 31.1984 7.92354C31.4309 8.52119 31.7098 9.42432 31.7828 11.0778C31.8625 12.8708 31.8824 13.4087 31.8824 17.9442C31.8824 22.4864 31.8625 23.0243 31.7828 24.8106C31.7098 26.4708 31.4309 27.3673 31.1984 27.9649C30.893 28.7552 30.5211 29.3263 29.9301 29.9173C29.3324 30.5149 28.768 30.8802 27.9777 31.1856C27.3801 31.4181 26.477 31.697 24.8234 31.77C23.0305 31.8497 22.4926 31.8696 17.957 31.8696C13.4148 31.8696 12.877 31.8497 11.0906 31.77C9.43047 31.697 8.53398 31.4181 7.93633 31.1856C7.14609 30.8802 6.575 30.5083 5.98398 29.9173C5.38633 29.3196 5.02109 28.7552 4.71563 27.9649C4.4832 27.3673 4.2043 26.4642 4.13125 24.8106C4.05156 23.0177 4.03164 22.4798 4.03164 17.9442C4.03164 13.4021 4.05156 12.8642 4.13125 11.0778C4.2043 9.41768 4.4832 8.52119 4.71563 7.92354C5.02109 7.1333 5.39297 6.56221 5.98398 5.97119C6.58164 5.37354 7.14609 5.0083 7.93633 4.70283C8.53398 4.47041 9.43711 4.1915 11.0906 4.11846C12.877 4.03877 13.4148 4.01885 17.957 4.01885ZM17.957 0.95752C13.3418 0.95752 12.7641 0.977441 10.9512 1.05713C9.14492 1.13682 7.90313 1.429 6.82734 1.84736C5.70508 2.28564 4.75547 2.86338 3.8125 3.81299C2.86289 4.75596 2.28516 5.70557 1.84688 6.82119C1.42852 7.90361 1.13633 9.13877 1.05664 10.945C0.976953 12.7646 0.957031 13.3423 0.957031 17.9575C0.957031 22.5728 0.976953 23.1505 1.05664 24.9634C1.13633 26.7696 1.42852 28.0114 1.84688 29.0872C2.28516 30.2095 2.86289 31.1591 3.8125 32.1021C4.75547 33.045 5.70508 33.6294 6.8207 34.061C7.90313 34.4794 9.13828 34.7716 10.9445 34.8513C12.7574 34.931 13.3352 34.9509 17.9504 34.9509C22.5656 34.9509 23.1434 34.931 24.9563 34.8513C26.7625 34.7716 28.0043 34.4794 29.0801 34.061C30.1957 33.6294 31.1453 33.045 32.0883 32.1021C33.0312 31.1591 33.6156 30.2095 34.0473 29.0938C34.4656 28.0114 34.7578 26.7763 34.8375 24.97C34.9172 23.1571 34.9371 22.5794 34.9371 17.9642C34.9371 13.3489 34.9172 12.7712 34.8375 10.9583C34.7578 9.15205 34.4656 7.91025 34.0473 6.83447C33.6289 5.70557 33.0512 4.75596 32.1016 3.81299C31.1586 2.87002 30.209 2.28564 29.0934 1.854C28.0109 1.43564 26.7758 1.14346 24.9695 1.06377C23.15 0.977441 22.5723 0.95752 17.957 0.95752Z" fill="#F9F7F3"/>
<path d="M17.957 9.2251C13.1359 9.2251 9.22461 13.1364 9.22461 17.9575C9.22461 22.7786 13.1359 26.6899 17.957 26.6899C22.7781 26.6899 26.6895 22.7786 26.6895 17.9575C26.6895 13.1364 22.7781 9.2251 17.957 9.2251ZM17.957 23.622C14.8293 23.622 12.2926 21.0853 12.2926 17.9575C12.2926 14.8298 14.8293 12.2931 17.957 12.2931C21.0848 12.2931 23.6215 14.8298 23.6215 17.9575C23.6215 21.0853 21.0848 23.622 17.957 23.622Z" fill="#F9F7F3"/>
<path d="M29.0734 8.87949C29.0734 10.0084 28.157 10.9182 27.0348 10.9182C25.9059 10.9182 24.9961 10.0018 24.9961 8.87949C24.9961 7.75059 25.9125 6.84082 27.0348 6.84082C28.157 6.84082 29.0734 7.75723 29.0734 8.87949Z" fill="#F9F7F3"/>
</g>
<defs>
<clipPath id="clip0_193_2328">
<rect width="34" height="34" fill="white" transform="translate(0.957031 0.95752)"/>
</clipPath>
</defs>
</svg>
