<svg width="116" height="47" viewBox="0 0 116 47" fill="none" xmlns="http://www.w3.org/2000/svg">
<path d="M53.5879 0.910156C54.8373 0.910156 56.0674 0.910156 57.3168 0.910156C58.1433 0.910156 58.9698 0.910156 59.7963 0.910156C59.7963 2.46577 59.7963 4.02138 59.7963 5.57699C59.7963 8.68822 59.7963 11.7994 59.7963 14.9107C60.7189 13.5495 62.0836 12.4022 63.7366 12.0522C65.6971 11.6828 67.9459 11.8772 69.522 13.2189C70.6369 14.1329 71.3096 15.494 71.6363 16.8746C71.9823 18.3136 71.9823 19.8108 71.9631 21.2887C71.9631 21.6776 71.9631 22.047 71.9631 22.4165C71.9631 23.5443 71.9631 24.6721 71.9631 25.8194V25.8388C71.9631 27.6667 71.9631 29.4751 71.9439 31.3029C70.7137 31.2835 69.4644 31.3029 68.2342 31.3029C67.4077 31.3029 66.5812 31.3029 65.7547 31.3029C65.7547 29.9029 65.7547 28.5223 65.7547 27.1222V27.1028C65.7547 25.1583 65.7547 23.2332 65.7547 21.2887C65.6971 20.122 65.6202 18.8386 64.7937 17.9247C63.6404 16.7968 61.4685 17.1274 60.6228 18.4886C60.0461 19.3831 59.8539 20.4525 59.8539 21.5026C59.8539 22.9999 59.8539 24.4971 59.8539 25.975C59.8539 27.7639 59.8539 29.5529 59.8539 31.3418C58.4892 31.3613 57.1438 31.3613 55.7791 31.3613C55.0679 31.3613 54.3567 31.3613 53.6456 31.3613C53.6264 29.3973 53.6456 27.4528 53.6456 25.4888C53.6456 21.9304 53.6648 18.3719 53.5879 14.794V12.48C53.5879 8.62988 53.6071 4.77974 53.5879 0.910156ZM81.4967 11.955C84.6105 11.5467 87.9549 12.305 90.3575 14.3856C94.2017 17.6913 94.6246 24.0499 91.6453 28.0556C88.0126 32.7224 80.4203 33.2086 75.9611 29.4751C73.7699 27.6667 72.6166 24.7888 72.6743 21.9887C72.6166 19.6358 73.347 17.2441 74.8655 15.4357C76.48 13.4523 78.9595 12.2661 81.4967 11.955ZM112.462 14.7551C109.963 12.305 106.215 11.4494 102.813 11.9939C100.141 12.4022 97.5654 13.8023 96.0277 16.0579C94.4516 18.3136 94.0479 21.2109 94.49 23.8749C94.8744 26.2083 96.1622 28.4056 98.0843 29.8057C100.756 31.7891 104.331 32.3141 107.541 31.5946C110.29 30.9918 112.846 29.2417 114.134 26.6944C116.037 22.9026 115.556 17.808 112.462 14.7551ZM0 12.5967C1.42235 12.6161 2.84469 12.6161 4.26704 12.6161C5.13198 12.6161 6.01615 12.6161 6.88109 12.6161C7.45772 13.9384 8.01512 15.2607 8.57253 16.5635C9.43747 18.6052 10.3024 20.6275 11.2058 22.6498C12.2053 20.2386 13.224 17.8469 14.2619 15.4357V15.4162C14.6848 14.444 15.0884 13.4912 15.5113 12.5189H16.4339H16.4531C17.3565 12.5189 18.2791 12.5189 19.1825 12.5189C19.9321 14.269 20.6817 16.019 21.4505 17.7886V17.808V17.8274V17.8469L21.4698 17.8858L21.489 17.9247C22.1617 19.4803 22.8344 21.0359 23.5072 22.6109C24.449 20.5109 25.3524 18.3914 26.2365 16.2718C26.7747 15.0273 27.2937 13.7829 27.8319 12.5384C28.7737 12.5384 29.7155 12.5384 30.6574 12.5384C32.0028 12.5384 33.3483 12.5384 34.6745 12.5578C33.1753 15.6885 31.6761 18.7997 30.1768 21.9109L30.1576 21.9304C28.6584 25.061 27.1399 28.1917 25.6407 31.3224C24.276 31.3418 22.9113 31.3418 21.5466 31.3224C21.0661 30.1946 20.6048 29.0667 20.1435 27.9584C19.2209 25.7027 18.2791 23.4471 17.2604 21.2303C16.4915 23.136 15.7035 25.0416 14.8962 26.9278C14.2811 28.4056 13.6661 29.9029 13.051 31.3807C12.3206 31.4002 11.5902 31.4002 10.8598 31.3807C10.2447 31.3807 9.6489 31.3807 9.03383 31.3807C8.26499 29.8057 7.51538 28.2306 6.74654 26.6555L6.7081 26.5778C4.47847 21.9498 2.21041 17.283 0 12.5967ZM46.5146 14.269C43.8813 11.1189 38.6917 11.2355 35.7701 13.9384C31.4646 17.8469 31.3301 25.3138 35.3473 29.4751C37.2694 31.4779 40.2678 32.4502 42.9972 31.7502C44.4388 31.4002 45.8034 30.5251 46.5338 29.2029C46.5338 29.5529 46.5338 29.9223 46.5338 30.2723C46.5338 30.6224 46.5338 30.9724 46.5338 31.3418C47.937 31.3613 49.3593 31.3613 50.7624 31.3613C51.4159 31.3613 52.0695 31.3613 52.7422 31.3613C52.7614 27.4722 52.7422 23.5832 52.723 19.6942C52.7037 17.3219 52.6845 14.9496 52.6845 12.5578H51.5505C49.8591 12.5578 48.1676 12.5578 46.4954 12.5578C46.4569 13.1217 46.4762 13.7051 46.5146 14.269ZM97.6807 35.9892C98.2573 35.9892 98.8339 35.9892 99.4106 35.9892C100.506 35.9892 101.621 35.9892 102.717 36.0087C102.717 36.3781 102.717 36.767 102.717 37.1365C101.909 37.1559 101.121 37.1559 100.333 37.1559C99.8526 37.1559 99.3721 37.1559 98.8916 37.1559C98.8724 37.7782 98.8916 38.381 98.9108 39.0032C98.93 39.431 98.9493 39.8588 98.9493 40.2866H102.486V41.4533H98.9493V44.9729C99.4298 44.9729 99.9103 44.9729 100.391 44.9729H100.41C101.256 44.9729 102.101 44.9729 102.928 44.9729C102.928 45.109 102.928 45.2257 102.928 45.3618C102.928 45.6146 102.928 45.8868 102.947 46.1396C102.274 46.1396 101.583 46.1396 100.91 46.1396C99.8334 46.1396 98.7571 46.1396 97.6999 46.1396C97.6807 43.9617 97.6807 41.8033 97.6807 39.6255C97.6999 38.4004 97.6999 37.1948 97.6807 35.9892ZM108.848 36.3003C107.637 35.7364 106.138 35.6198 104.965 36.3003C103.793 37.0004 103.37 38.6532 104.024 39.8588C104.466 40.6561 105.311 41.1422 106.138 41.4727L106.234 41.5116C106.868 41.7839 107.56 42.095 107.81 42.795C108.175 43.6117 107.772 44.6618 106.926 44.9729C105.907 45.3812 104.773 44.9923 103.87 44.4673L103.812 44.6812C103.716 44.9923 103.639 45.3034 103.543 45.634C104.869 46.3535 106.618 46.5674 107.964 45.7701C109.252 44.9923 109.559 43.2034 108.925 41.92C108.464 41.1227 107.637 40.6561 106.811 40.3255L106.772 40.306C106.138 40.0338 105.407 39.7032 105.138 39.0227C104.831 38.3421 105.158 37.4865 105.83 37.1754C106.715 36.7476 107.714 37.0587 108.56 37.4282L108.637 37.1559C108.675 36.8643 108.771 36.5726 108.848 36.3003ZM110.885 36.417C112.058 35.5809 113.73 35.6586 114.96 36.3198C114.845 36.6892 114.73 37.0587 114.614 37.4282C113.749 36.9809 112.654 36.7087 111.77 37.2337C110.943 37.7393 110.924 39.0616 111.693 39.6255C112.077 39.9171 112.519 40.131 112.961 40.3255C113.499 40.5783 114.018 40.8116 114.461 41.22C115.806 42.4061 115.556 44.8757 114.018 45.7701C112.673 46.5479 110.943 46.334 109.636 45.5951C109.751 45.2062 109.867 44.8173 110.001 44.4284C110.962 44.9923 112.231 45.3812 113.269 44.8173C114.211 44.2923 114.326 42.8339 113.499 42.1533C113.096 41.8033 112.615 41.5894 112.154 41.3755C111.635 41.1616 111.135 40.9283 110.732 40.5394C109.463 39.5282 109.559 37.3504 110.885 36.417ZM77.7486 36.0476C76.0764 36.0476 74.3849 36.0476 72.7127 36.0476C72.7127 37.3893 72.7127 38.7504 72.7127 40.0921C72.7127 42.1144 72.7127 44.1367 72.6935 46.159C73.1164 46.1785 73.5584 46.1785 73.9813 46.159C73.9813 45.3229 73.9813 44.5062 73.9813 43.6701C73.9813 42.9895 73.9813 42.2894 73.9813 41.6089C75.1538 41.6089 76.3262 41.5894 77.4987 41.6089C77.4987 41.4728 77.4795 41.3561 77.4795 41.22V41.2005C77.4603 40.9477 77.4603 40.6755 77.4411 40.4227C76.8644 40.4227 76.2878 40.4227 75.7112 40.4227C75.1346 40.4227 74.5579 40.4227 73.9813 40.4227C73.9813 39.9366 73.9813 39.4505 73.9813 38.9643C73.9813 38.381 73.9813 37.7976 73.9813 37.2143C74.5195 37.1948 75.0385 37.1948 75.5766 37.2143C76.307 37.2143 77.0374 37.2143 77.7486 37.1754C77.7678 36.8059 77.7678 36.417 77.7486 36.0476ZM78.9211 36.0476C79.3439 36.0476 79.7668 36.0476 80.1897 36.0476C80.2089 37.292 80.1897 38.5365 80.1897 39.781C80.1704 41.92 80.1704 44.059 80.2665 46.1785C79.8437 46.1785 79.4016 46.1785 78.9787 46.1785C78.998 42.795 78.9595 39.4116 78.9211 36.0476ZM86.4172 36.0476C84.745 36.0476 83.0728 36.0476 81.4006 36.0476C81.4006 36.4365 81.4006 36.8059 81.4006 37.1948C81.7658 37.1948 82.1502 37.1948 82.5154 37.1948H82.5346C83.092 37.1948 83.6302 37.1948 84.1876 37.1948C84.1876 39.4116 84.1876 41.6478 84.1876 43.8839V46.1201C84.6105 46.1201 85.0525 46.1201 85.4754 46.1007C85.4562 44.0006 85.4754 41.92 85.4754 39.8199V39.7421C85.4754 38.906 85.4754 38.0504 85.4754 37.2143C86.4172 37.2143 87.3591 37.2143 88.3009 37.2143C88.3009 37.0198 88.3009 36.8254 88.3009 36.6309V36.6115C88.3009 36.417 88.3009 36.242 88.3009 36.067C87.705 36.067 87.1092 36.067 86.5326 36.067L86.4172 36.0476ZM89.5118 36.067C89.9731 36.0476 90.4344 36.0476 90.8765 36.0476C91.3378 36.8837 91.8375 37.7004 92.318 38.5171C93.4329 40.3838 94.5285 42.2311 95.4318 44.2145C95.2973 41.4728 95.2781 38.7115 95.3165 35.9698C95.5087 35.9698 95.7009 35.9698 95.8931 35.9698H95.9124C96.1046 35.9698 96.316 35.9698 96.5082 35.9698C96.5082 37.0976 96.5082 38.2254 96.5082 39.3532C96.5082 41.6089 96.5082 43.8645 96.489 46.1007C96.1622 46.1007 95.8547 46.1007 95.5279 46.1007H95.2204C94.7399 45.2451 94.2401 44.3895 93.7404 43.5339C92.6448 41.6866 91.5684 39.8199 90.6266 37.8754C90.6651 39.8005 90.6651 41.7255 90.6651 43.6312C90.6651 44.4479 90.6651 45.284 90.6651 46.1007C90.2806 46.1007 89.877 46.0813 89.4926 46.0618C89.531 42.7367 89.5118 39.3921 89.5118 36.067ZM85.879 18.8386C84.8219 17.7302 83.092 17.4191 81.6889 17.9441C78.9595 18.9358 78.4021 22.8832 80.2665 24.9249C81.8234 26.6361 84.9757 26.4611 86.2635 24.536C87.3975 22.8248 87.2629 20.3553 85.879 18.8386ZM103.255 17.9636C104.562 17.458 106.196 17.5941 107.272 18.5469C108.983 20.0247 109.175 22.8248 107.849 24.6138C106.369 26.6361 102.793 26.5194 101.525 24.3416C100.237 22.2415 100.833 18.9358 103.255 17.9636ZM41.3826 18.0024C42.6704 17.5358 44.2081 17.7302 45.2653 18.6247C47.0912 20.2192 47.1681 23.3499 45.5151 25.0805C44.1697 26.3833 41.8632 26.4805 40.3639 25.3722C38.019 23.5249 38.461 19.0525 41.3826 18.0024Z" fill="#F9F7F3"/>
</svg>
