<svg width="516" height="92" viewBox="0 0 516 92" fill="none" xmlns="http://www.w3.org/2000/svg">
<path d="M46.3184 55.8556C52.1931 53.7646 55.6781 47.2925 55.6781 41.0195C55.6781 29.9671 47.115 22.9971 32.3784 22.9971H0.316406V90.7056H34.3698C49.6043 90.7056 58.6653 83.1382 58.6653 71.8866C58.6653 64.6179 54.5828 57.6479 46.3184 55.8556ZM29.7895 36.7379C36.2617 36.7379 39.6471 39.0281 39.6471 43.3096C39.6471 47.6908 36.1621 50.8771 29.7895 50.8771H17.144V36.7379H29.7895ZM32.1793 76.7656H17.144V63.1243H32.478C38.751 63.1243 42.236 65.5141 42.236 69.6961C42.236 73.6789 39.1493 76.7656 32.1793 76.7656Z" fill="black"/>
<path d="M89.4274 41.1191C74.4917 41.1191 64.2358 51.8728 64.2358 66.5098C64.2358 81.2463 74.7904 92.0001 90.6222 92.0001C101.973 92.0001 110.935 86.1253 113.822 76.6661H97.4927C95.9991 78.4583 93.9081 79.2549 90.3235 79.2549C83.7518 79.2549 80.466 75.3716 79.3707 70.3931H114.32C116.71 53.2668 106.454 41.1191 89.4274 41.1191ZM89.8257 53.0676C95.3021 53.0676 98.7871 55.5569 99.6832 61.1329H79.5698C80.8642 56.2539 84.1501 53.0676 89.8257 53.0676Z" fill="black"/>
<path d="M160.446 75.1725C157.558 76.2678 154.969 77.1639 151.883 77.1639C147.203 77.1639 144.315 74.8738 144.315 69.8952V56.2539H160.745V42.4135H144.315V25.9842H128.185V42.4135H118.725V56.2539H128.185V70.3931C128.185 83.4369 136.15 92.0001 149.294 92.0001C152.082 92.0001 157.26 91.7013 162.238 89.6103L160.446 75.1725Z" fill="black"/>
<path d="M205.564 75.1725C202.677 76.2678 200.088 77.1639 197.001 77.1639C192.321 77.1639 189.434 74.8738 189.434 69.8952V56.2539H205.863V42.4135H189.434V25.9842H173.303V42.4135H163.844V56.2539H173.303V70.3931C173.303 83.4369 181.269 92.0001 194.412 92.0001C197.2 92.0001 202.378 91.7013 207.357 89.6103L205.564 75.1725Z" fill="black"/>
<path d="M236.743 41.1191C221.807 41.1191 211.551 51.8728 211.551 66.5098C211.551 81.2463 222.106 92.0001 237.937 92.0001C249.289 92.0001 258.25 86.1253 261.138 76.6661H244.808C243.314 78.4583 241.223 79.2549 237.639 79.2549C231.067 79.2549 227.781 75.3716 226.686 70.3931H261.635C264.025 53.2668 253.769 41.1191 236.743 41.1191ZM237.141 53.0676C242.617 53.0676 246.102 55.5569 246.998 61.1329H226.885C228.179 56.2539 231.465 53.0676 237.141 53.0676Z" fill="black"/>
<path d="M302.901 41.6169C295.732 41.6169 290.554 43.9071 286.272 47.5912V42.4135H270.042V90.7056H286.272V63.0248C290.056 59.3406 295.035 57.2496 302.901 56.9509V41.6169Z" fill="black"/>
<path d="M337.016 21.7026C321.085 21.7026 310.132 30.0666 310.132 43.6083C310.132 54.3621 316.405 60.4359 329.748 63.3235L340.9 65.7132C346.774 66.8085 348.069 69.2978 348.069 71.6875C348.069 75.4712 344.484 77.7613 338.51 77.7613C330.544 77.7613 325.466 73.9776 324.371 68.0033H307.444C309.037 84.7313 322.778 92.0001 338.012 92.0001C354.939 92.0001 366.091 83.6361 366.091 70.0943C366.091 58.4445 358.126 53.3663 345.679 50.7775L336.22 48.7861C330.843 47.6908 328.055 45.9981 328.055 42.1148C328.055 37.7336 331.938 35.4435 337.913 35.4435C345.082 35.4435 348.168 38.9285 349.065 44.0066H365.992C364.299 25.7851 347.969 21.7026 337.016 21.7026Z" fill="black"/>
<path d="M408.024 42.4135V72.6832C405.236 75.7699 402.149 77.4626 399.162 77.4626C393.885 77.4626 390.3 74.1768 390.3 67.3063V42.4135H374.17V69.7956C374.17 83.5365 382.534 92.0001 394.781 92.0001C399.959 92.0001 404.141 90.3073 408.024 87.3202V90.7056H424.155V42.4135H408.024Z" fill="black"/>
<path d="M494.596 41.1191C488.323 41.1191 483.344 43.0109 478.565 47.0933C475.08 43.1105 470.002 41.1191 463.828 41.1191C458.451 41.1191 454.767 42.7122 451.382 45.4006V42.4135H435.152V90.7056H451.382V59.8385C453.772 56.9509 456.56 55.7561 459.746 55.7561C463.828 55.7561 467.214 57.6479 467.214 64.2196V90.7056H483.344V62.2282C483.344 61.2325 483.344 60.3363 483.245 59.4402C485.734 56.6522 488.323 55.7561 491.21 55.7561C495.791 55.7561 499.176 58.1458 499.176 64.7175V90.7056H515.307V62.7261C515.307 48.7861 507.142 41.1191 494.596 41.1191Z" fill="black"/>
<path d="M515.132 0.0258789H0.347656V13.8829H515.132V0.0258789Z" fill="black"/>
</svg>
