<svg width="516" height="93" viewBox="0 0 516 93" fill="none" xmlns="http://www.w3.org/2000/svg">
<path d="M46.3184 56.6305C52.1931 54.5395 55.6781 48.0674 55.6781 41.7944C55.6781 30.742 47.115 23.772 32.3784 23.772H0.316406V91.4805H34.3698C49.6043 91.4805 58.6653 83.9131 58.6653 72.6615C58.6653 65.3928 54.5828 58.4228 46.3184 56.6305ZM29.7895 37.5128C36.2617 37.5128 39.6471 39.803 39.6471 44.0845C39.6471 48.4657 36.1621 51.652 29.7895 51.652H17.144V37.5128H29.7895ZM32.1793 77.5405H17.144V63.8992H32.478C38.751 63.8992 42.236 66.289 42.236 70.471C42.236 74.4538 39.1493 77.5405 32.1793 77.5405Z" fill="#F9F7F3"/>
<path d="M89.4274 41.894C74.4917 41.894 64.2358 52.6477 64.2358 67.2847C64.2358 82.0212 74.7904 92.775 90.6222 92.775C101.973 92.775 110.935 86.9002 113.822 77.441H97.4927C95.9991 79.2332 93.9081 80.0298 90.3235 80.0298C83.7518 80.0298 80.466 76.1465 79.3707 71.168H114.32C116.71 54.0417 106.454 41.894 89.4274 41.894ZM89.8257 53.8425C95.3021 53.8425 98.7871 56.3318 99.6832 61.9078H79.5698C80.8642 57.0288 84.1501 53.8425 89.8257 53.8425Z" fill="#F9F7F3"/>
<path d="M160.446 75.9474C157.558 77.0427 154.969 77.9388 151.883 77.9388C147.203 77.9388 144.315 75.6487 144.315 70.6701V57.0288H160.745V43.1884H144.315V26.7591H128.185V43.1884H118.725V57.0288H128.185V71.168C128.185 84.2118 136.15 92.775 149.294 92.775C152.082 92.775 157.26 92.4762 162.238 90.3852L160.446 75.9474Z" fill="#F9F7F3"/>
<path d="M205.564 75.9474C202.677 77.0427 200.088 77.9388 197.001 77.9388C192.321 77.9388 189.434 75.6487 189.434 70.6701V57.0288H205.863V43.1884H189.434V26.7591H173.303V43.1884H163.844V57.0288H173.303V71.168C173.303 84.2118 181.269 92.775 194.412 92.775C197.2 92.775 202.378 92.4762 207.357 90.3852L205.564 75.9474Z" fill="#F9F7F3"/>
<path d="M236.743 41.894C221.807 41.894 211.551 52.6477 211.551 67.2847C211.551 82.0212 222.106 92.775 237.937 92.775C249.289 92.775 258.25 86.9002 261.138 77.441H244.808C243.314 79.2332 241.223 80.0298 237.639 80.0298C231.067 80.0298 227.781 76.1465 226.686 71.168H261.635C264.025 54.0417 253.769 41.894 236.743 41.894ZM237.141 53.8425C242.617 53.8425 246.102 56.3318 246.998 61.9078H226.885C228.179 57.0288 231.465 53.8425 237.141 53.8425Z" fill="#F9F7F3"/>
<path d="M302.901 42.3918C295.732 42.3918 290.554 44.682 286.272 48.3661V43.1884H270.042V91.4805H286.272V63.7997C290.056 60.1155 295.035 58.0245 302.901 57.7258V42.3918Z" fill="#F9F7F3"/>
<path d="M337.016 22.4775C321.085 22.4775 310.132 30.8415 310.132 44.3833C310.132 55.137 316.405 61.2108 329.748 64.0984L340.9 66.4881C346.774 67.5834 348.069 70.0727 348.069 72.4624C348.069 76.2461 344.484 78.5362 338.51 78.5362C330.544 78.5362 325.466 74.7525 324.371 68.7782H307.444C309.037 85.5062 322.778 92.775 338.012 92.775C354.939 92.775 366.091 84.411 366.091 70.8692C366.091 59.2194 358.126 54.1412 345.679 51.5524L336.22 49.561C330.843 48.4657 328.055 46.773 328.055 42.8897C328.055 38.5085 331.938 36.2184 337.913 36.2184C345.082 36.2184 348.168 39.7034 349.065 44.7815H365.992C364.299 26.56 347.969 22.4775 337.016 22.4775Z" fill="#F9F7F3"/>
<path d="M408.024 43.1884V73.4581C405.236 76.5448 402.149 78.2375 399.162 78.2375C393.885 78.2375 390.3 74.9517 390.3 68.0812V43.1884H374.17V70.5705C374.17 84.3114 382.534 92.775 394.781 92.775C399.959 92.775 404.141 91.0822 408.024 88.0951V91.4805H424.155V43.1884H408.024Z" fill="#F9F7F3"/>
<path d="M494.596 41.894C488.323 41.894 483.344 43.7858 478.565 47.8682C475.08 43.8854 470.002 41.894 463.828 41.894C458.451 41.894 454.767 43.4871 451.382 46.1755V43.1884H435.152V91.4805H451.382V60.6134C453.772 57.7258 456.56 56.531 459.746 56.531C463.828 56.531 467.214 58.4228 467.214 64.9945V91.4805H483.344V63.0031C483.344 62.0074 483.344 61.1113 483.245 60.2151C485.734 57.4271 488.323 56.531 491.21 56.531C495.791 56.531 499.176 58.9207 499.176 65.4924V91.4805H515.307V63.501C515.307 49.561 507.142 41.894 494.596 41.894Z" fill="#F9F7F3"/>
<path d="M515.132 0.800781H0.347656V14.6578H515.132V0.800781Z" fill="#F9F7F3"/>
</svg>
