<svg width="496" height="88" viewBox="0 0 496 88" fill="none" xmlns="http://www.w3.org/2000/svg">
<path d="M495.123 0.866211H0.0839844V10.8991H495.123V0.866211Z" fill="black"/>
<path d="M42.3507 52.0907C47.9186 50.0747 51.4706 44.2187 51.4706 37.7867C51.4706 27.1307 43.4067 20.6027 29.4866 20.6027H0.0146484V85.8827H30.9267C45.3267 85.8827 54.3507 78.6827 54.3507 68.0267C54.3507 60.5387 50.6066 53.8187 42.3507 52.0907ZM27.9506 32.1227C35.4386 32.1227 39.1826 34.8107 39.1826 39.5147C39.1826 44.4107 35.2466 48.1547 27.9506 48.1547H13.0706V32.1227H27.9506ZM30.3506 74.3627H13.0706V58.9067H30.8307C37.2626 58.9067 41.4866 61.6907 41.4866 66.3947C41.4866 70.6187 38.0306 74.3627 30.3506 74.3627Z" fill="black"/>
<path d="M85.6881 38.9387C71.6721 38.9387 62.0722 49.4027 62.0722 63.0347C62.0722 76.6667 71.7681 87.0347 86.4561 87.0347C96.5361 87.0347 104.696 82.0427 107.768 73.4027H93.8482C92.2161 75.4187 89.9121 75.9947 86.5521 75.9947C79.3521 75.9947 75.8961 71.9627 74.9361 66.6827H108.536C110.936 50.8427 101.432 38.9387 85.6881 38.9387ZM85.7841 49.5947C91.6402 49.5947 95.3842 52.2827 96.0562 58.1387H75.2241C76.3761 53.3387 79.6402 49.5947 85.7841 49.5947Z" fill="black"/>
<path d="M152.675 73.5947C150.371 74.5547 147.683 75.4187 144.803 75.4187C140.099 75.4187 136.739 73.0187 136.739 67.6427V50.6507H153.539V40.0907H136.739V23.4827H124.163V40.0907H114.371V50.6507H124.163V67.6427C124.163 79.3547 131.075 87.0347 143.363 87.0347C146.723 87.0347 150.179 86.6507 154.403 85.0187L152.675 73.5947Z" fill="black"/>
<path d="M196.143 73.5947C193.839 74.5547 191.151 75.4187 188.271 75.4187C183.567 75.4187 180.207 73.0187 180.207 67.6427V50.6507H197.007V40.0907H180.207V23.4827H167.631V40.0907H157.839V50.6507H167.631V67.6427C167.631 79.3547 174.543 87.0347 186.831 87.0347C190.191 87.0347 193.647 86.6507 197.871 85.0187L196.143 73.5947Z" fill="black"/>
<path d="M227.251 38.9387C213.235 38.9387 203.635 49.4027 203.635 63.0347C203.635 76.6667 213.331 87.0347 228.019 87.0347C238.099 87.0347 246.259 82.0427 249.331 73.4027H235.411C233.779 75.4187 231.475 75.9947 228.115 75.9947C220.915 75.9947 217.459 71.9627 216.499 66.6827H250.099C252.499 50.8427 242.995 38.9387 227.251 38.9387ZM227.347 49.5947C233.203 49.5947 236.947 52.2827 237.619 58.1387H216.787C217.939 53.3387 221.203 49.5947 227.347 49.5947Z" fill="black"/>
<path d="M273.044 45.3707V40.0907H260.468V85.8827H273.044V58.1387C276.98 53.7227 282.164 51.6107 289.268 51.2267V39.3227C282.452 39.3227 277.172 41.4347 273.044 45.3707Z" fill="black"/>
<path d="M323.392 19.4507C308.512 19.4507 298.624 27.5147 298.624 39.9947C298.624 50.0747 304.288 56.6027 317.248 59.0987L327.808 61.1147C334.816 62.3627 336.448 65.3387 336.448 68.2187C336.448 72.8267 332.32 75.4187 325.12 75.4187C316.096 75.4187 310.048 71.1947 308.992 64.3787H296.032C296.992 78.3947 308.224 87.0347 324.352 87.0347C339.712 87.0347 349.888 78.9707 349.888 66.5867C349.888 55.8347 342.592 50.9387 329.824 48.3467L322.144 46.8107C315.904 45.5627 312.448 43.5467 312.448 38.8427C312.448 33.4667 317.152 30.6827 324.352 30.6827C332.608 30.6827 336.448 34.4267 337.312 40.4747H350.272C348.736 23.7707 334.432 19.4507 323.392 19.4507Z" fill="black"/>
<path d="M394.018 40.0907V69.5627C390.754 73.4987 386.914 75.6107 383.458 75.6107C376.834 75.6107 373.09 71.3867 373.09 63.8987V40.0907H360.514V64.6667C360.514 78.1067 368.578 87.0347 380.77 87.0347C385.954 87.0347 390.274 85.2107 394.018 82.2347V85.8827H406.594V40.0907H394.018Z" fill="black"/>
<path d="M474.375 38.9387C468.135 38.9387 463.431 40.8587 458.919 44.6987C455.463 40.8587 450.375 38.9387 444.327 38.9387C438.855 38.9387 435.303 40.5707 432.231 43.1627V40.0907H419.655V85.8827H432.231V55.7387C435.207 51.8987 438.759 50.3627 442.695 50.3627C447.495 50.3627 451.239 52.6667 451.239 59.6747V85.8827H463.815V59.6747C463.815 58.0427 463.719 56.6027 463.527 55.1627C466.503 51.5147 470.055 50.3627 473.511 50.3627C479.079 50.3627 482.823 53.3387 482.823 60.4427V85.8827H495.399V60.4427C495.399 46.6187 486.759 38.9387 474.375 38.9387Z" fill="black"/>
</svg>
