<svg width="496" height="69" viewBox="0 0 496 69" fill="none" xmlns="http://www.w3.org/2000/svg">
<path d="M42.3507 33.6141C47.9186 31.5981 51.4706 25.7421 51.4706 19.3101C51.4706 8.65412 43.4067 2.12612 29.4866 2.12612H0.0146484V67.4061H30.9267C45.3267 67.4061 54.3507 60.2061 54.3507 49.5501C54.3507 42.0621 50.6066 35.3421 42.3507 33.6141ZM27.9506 13.6461C35.4386 13.6461 39.1826 16.3341 39.1826 21.0381C39.1826 25.9341 35.2466 29.6781 27.9506 29.6781H13.0706V13.6461H27.9506ZM30.3506 55.8861H13.0706V40.4301H30.8307C37.2626 40.4301 41.4866 43.2141 41.4866 47.9181C41.4866 52.1421 38.0306 55.8861 30.3506 55.8861Z" fill="#F9F7F3"/>
<path d="M85.6881 20.4621C71.6721 20.4621 62.0722 30.9261 62.0722 44.5581C62.0722 58.1901 71.7681 68.5581 86.4561 68.5581C96.5361 68.5581 104.696 63.5661 107.768 54.9261H93.8482C92.2161 56.9421 89.9121 57.5181 86.5521 57.5181C79.3521 57.5181 75.8961 53.4861 74.9361 48.2061H108.536C110.936 32.3661 101.432 20.4621 85.6881 20.4621ZM85.7841 31.1181C91.6402 31.1181 95.3842 33.8061 96.0562 39.6621H75.2241C76.3761 34.8621 79.6402 31.1181 85.7841 31.1181Z" fill="#F9F7F3"/>
<path d="M152.675 55.1181C150.371 56.0781 147.683 56.9421 144.803 56.9421C140.099 56.9421 136.739 54.5421 136.739 49.1661V32.1741H153.539V21.6141H136.739V5.00612H124.163V21.6141H114.371V32.1741H124.163V49.1661C124.163 60.8781 131.075 68.5581 143.363 68.5581C146.723 68.5581 150.179 68.1741 154.403 66.5421L152.675 55.1181Z" fill="#F9F7F3"/>
<path d="M196.143 55.1181C193.839 56.0781 191.151 56.9421 188.271 56.9421C183.567 56.9421 180.207 54.5421 180.207 49.1661V32.1741H197.007V21.6141H180.207V5.00612H167.631V21.6141H157.839V32.1741H167.631V49.1661C167.631 60.8781 174.543 68.5581 186.831 68.5581C190.191 68.5581 193.647 68.1741 197.871 66.5421L196.143 55.1181Z" fill="#F9F7F3"/>
<path d="M227.251 20.4621C213.235 20.4621 203.635 30.9261 203.635 44.5581C203.635 58.1901 213.331 68.5581 228.019 68.5581C238.099 68.5581 246.259 63.5661 249.331 54.9261H235.411C233.779 56.9421 231.475 57.5181 228.115 57.5181C220.915 57.5181 217.459 53.4861 216.499 48.2061H250.099C252.499 32.3661 242.995 20.4621 227.251 20.4621ZM227.347 31.1181C233.203 31.1181 236.947 33.8061 237.619 39.6621H216.787C217.939 34.8621 221.203 31.1181 227.347 31.1181Z" fill="#F9F7F3"/>
<path d="M273.044 26.8941V21.6141H260.468V67.4061H273.044V39.6621C276.98 35.2461 282.164 33.1341 289.268 32.7501V20.8461C282.452 20.8461 277.172 22.9581 273.044 26.8941Z" fill="#F9F7F3"/>
<path d="M323.392 0.974121C308.512 0.974121 298.624 9.03812 298.624 21.5181C298.624 31.5981 304.288 38.1261 317.248 40.6221L327.808 42.6381C334.816 43.8861 336.448 46.8621 336.448 49.7421C336.448 54.3501 332.32 56.9421 325.12 56.9421C316.096 56.9421 310.048 52.7181 308.992 45.9021H296.032C296.992 59.9181 308.224 68.5581 324.352 68.5581C339.712 68.5581 349.888 60.4941 349.888 48.1101C349.888 37.3581 342.592 32.4621 329.824 29.8701L322.144 28.3341C315.904 27.0861 312.448 25.0701 312.448 20.3661C312.448 14.9901 317.152 12.2061 324.352 12.2061C332.608 12.2061 336.448 15.9501 337.312 21.9981H350.272C348.736 5.29412 334.432 0.974121 323.392 0.974121Z" fill="#F9F7F3"/>
<path d="M394.018 21.6141V51.0861C390.754 55.0221 386.914 57.1341 383.458 57.1341C376.834 57.1341 373.09 52.9101 373.09 45.4221V21.6141H360.514V46.1901C360.514 59.6301 368.578 68.5581 380.77 68.5581C385.954 68.5581 390.274 66.7341 394.018 63.7581V67.4061H406.594V21.6141H394.018Z" fill="#F9F7F3"/>
<path d="M474.375 20.4621C468.135 20.4621 463.431 22.3821 458.919 26.2221C455.463 22.3821 450.375 20.4621 444.327 20.4621C438.855 20.4621 435.303 22.0941 432.231 24.6861V21.6141H419.655V67.4061H432.231V37.2621C435.207 33.4221 438.759 31.8861 442.695 31.8861C447.495 31.8861 451.239 34.1901 451.239 41.1981V67.4061H463.815V41.1981C463.815 39.5661 463.719 38.1261 463.527 36.6861C466.503 33.0381 470.055 31.8861 473.511 31.8861C479.079 31.8861 482.823 34.8621 482.823 41.9661V67.4061H495.399V41.9661C495.399 28.1421 486.759 20.4621 474.375 20.4621Z" fill="#F9F7F3"/>
</svg>
