<svg width="496" height="87" viewBox="0 0 496 87" fill="none" xmlns="http://www.w3.org/2000/svg">
<path d="M495.123 0.259277H0.0839844V10.2921H495.123V0.259277Z" fill="#F9F7F3"/>
<path d="M42.3507 51.484C47.9186 49.468 51.4706 43.612 51.4706 37.18C51.4706 26.524 43.4067 19.996 29.4866 19.996H0.0146484V85.276H30.9267C45.3267 85.276 54.3507 78.076 54.3507 67.42C54.3507 59.932 50.6066 53.212 42.3507 51.484ZM27.9506 31.516C35.4386 31.516 39.1826 34.204 39.1826 38.908C39.1826 43.804 35.2466 47.548 27.9506 47.548H13.0706V31.516H27.9506ZM30.3506 73.756H13.0706V58.3H30.8307C37.2626 58.3 41.4866 61.084 41.4866 65.788C41.4866 70.012 38.0306 73.756 30.3506 73.756Z" fill="#F9F7F3"/>
<path d="M85.6881 38.332C71.6721 38.332 62.0722 48.796 62.0722 62.428C62.0722 76.06 71.7681 86.428 86.4561 86.428C96.5361 86.428 104.696 81.436 107.768 72.796H93.8482C92.2161 74.812 89.9121 75.388 86.5521 75.388C79.3521 75.388 75.8961 71.356 74.9361 66.076H108.536C110.936 50.236 101.432 38.332 85.6881 38.332ZM85.7841 48.988C91.6402 48.988 95.3842 51.676 96.0562 57.532H75.2241C76.3761 52.732 79.6402 48.988 85.7841 48.988Z" fill="#F9F7F3"/>
<path d="M152.675 72.988C150.371 73.948 147.683 74.812 144.803 74.812C140.099 74.812 136.739 72.412 136.739 67.036V50.044H153.539V39.484H136.739V22.876H124.163V39.484H114.371V50.044H124.163V67.036C124.163 78.748 131.075 86.428 143.363 86.428C146.723 86.428 150.179 86.044 154.403 84.412L152.675 72.988Z" fill="#F9F7F3"/>
<path d="M196.143 72.988C193.839 73.948 191.151 74.812 188.271 74.812C183.567 74.812 180.207 72.412 180.207 67.036V50.044H197.007V39.484H180.207V22.876H167.631V39.484H157.839V50.044H167.631V67.036C167.631 78.748 174.543 86.428 186.831 86.428C190.191 86.428 193.647 86.044 197.871 84.412L196.143 72.988Z" fill="#F9F7F3"/>
<path d="M227.251 38.332C213.235 38.332 203.635 48.796 203.635 62.428C203.635 76.06 213.331 86.428 228.019 86.428C238.099 86.428 246.259 81.436 249.331 72.796H235.411C233.779 74.812 231.475 75.388 228.115 75.388C220.915 75.388 217.459 71.356 216.499 66.076H250.099C252.499 50.236 242.995 38.332 227.251 38.332ZM227.347 48.988C233.203 48.988 236.947 51.676 237.619 57.532H216.787C217.939 52.732 221.203 48.988 227.347 48.988Z" fill="#F9F7F3"/>
<path d="M273.044 44.764V39.484H260.468V85.276H273.044V57.532C276.98 53.116 282.164 51.004 289.268 50.62V38.716C282.452 38.716 277.172 40.828 273.044 44.764Z" fill="#F9F7F3"/>
<path d="M323.392 18.844C308.512 18.844 298.624 26.908 298.624 39.388C298.624 49.468 304.288 55.996 317.248 58.492L327.808 60.508C334.816 61.756 336.448 64.732 336.448 67.612C336.448 72.22 332.32 74.812 325.12 74.812C316.096 74.812 310.048 70.588 308.992 63.772H296.032C296.992 77.788 308.224 86.428 324.352 86.428C339.712 86.428 349.888 78.364 349.888 65.98C349.888 55.228 342.592 50.332 329.824 47.74L322.144 46.204C315.904 44.956 312.448 42.94 312.448 38.236C312.448 32.86 317.152 30.076 324.352 30.076C332.608 30.076 336.448 33.82 337.312 39.868H350.272C348.736 23.164 334.432 18.844 323.392 18.844Z" fill="#F9F7F3"/>
<path d="M394.018 39.484V68.956C390.754 72.892 386.914 75.004 383.458 75.004C376.834 75.004 373.09 70.78 373.09 63.292V39.484H360.514V64.06C360.514 77.5 368.578 86.428 380.77 86.428C385.954 86.428 390.274 84.604 394.018 81.628V85.276H406.594V39.484H394.018Z" fill="#F9F7F3"/>
<path d="M474.375 38.332C468.135 38.332 463.431 40.252 458.919 44.092C455.463 40.252 450.375 38.332 444.327 38.332C438.855 38.332 435.303 39.964 432.231 42.556V39.484H419.655V85.276H432.231V55.132C435.207 51.292 438.759 49.756 442.695 49.756C447.495 49.756 451.239 52.06 451.239 59.068V85.276H463.815V59.068C463.815 57.436 463.719 55.996 463.527 54.556C466.503 50.908 470.055 49.756 473.511 49.756C479.079 49.756 482.823 52.732 482.823 59.836V85.276H495.399V59.836C495.399 46.012 486.759 38.332 474.375 38.332Z" fill="#F9F7F3"/>
</svg>
