<svg width="35" height="35" viewBox="0 0 35 35" fill="none" xmlns="http://www.w3.org/2000/svg">
<g clip-path="url(#clip0_193_2329)">
<path d="M34.957 18.0614C34.957 8.61519 27.3459 0.95752 17.957 0.95752C8.56818 0.95752 0.957031 8.61519 0.957031 18.0614C0.957031 26.5983 7.17365 33.6744 15.3008 34.9575V23.0055H10.9844V18.0614H15.3008V14.2932C15.3008 10.0065 17.8388 7.63873 21.7219 7.63873C23.5813 7.63873 25.5273 7.97279 25.5273 7.97279V12.1819H23.3838C21.272 12.1819 20.6133 13.5005 20.6133 14.8544V18.0614H25.3281L24.5744 23.0055H20.6133V34.9575C28.7404 33.6744 34.957 26.5983 34.957 18.0614Z" fill="#F9F7F3"/>
</g>
<defs>
<clipPath id="clip0_193_2329">
<rect width="34" height="34" fill="white" transform="translate(0.957031 0.95752)"/>
</clipPath>
</defs>
</svg>
