<svg width="35" height="35" viewBox="0 0 35 35" fill="none" xmlns="http://www.w3.org/2000/svg">
<path d="M34.9156 26.7121C34.7673 26.2137 34.058 25.8624 34.058 25.8624C33.991 25.8266 33.931 25.7943 33.8816 25.7692C32.6994 25.1884 31.6514 24.4894 30.7691 23.6971C30.0598 23.059 29.4529 22.3563 28.9659 21.6106C28.3695 20.7 28.0907 19.94 27.9707 19.5277C27.9037 19.2589 27.9143 19.1513 27.9707 19.0115C28.0166 18.8932 28.1542 18.7821 28.2178 18.7283C28.6165 18.4415 29.2588 18.0185 29.654 17.7603C29.9963 17.5345 30.2892 17.3409 30.4621 17.219C31.0162 16.8247 31.3973 16.4231 31.6196 15.9894C31.909 15.4301 31.9442 14.8135 31.7184 14.2076C31.4149 13.3902 30.6633 12.9027 29.7069 12.9027C29.4952 12.9027 29.2764 12.9278 29.0576 12.9744C28.5107 13.0963 27.9919 13.2935 27.5579 13.4655C27.5261 13.4799 27.4908 13.4548 27.4943 13.4189C27.5402 12.3255 27.5931 10.8557 27.4732 9.4611C27.3673 8.19919 27.1097 7.13445 26.6933 6.20594C26.2733 5.27384 25.7264 4.58552 25.2994 4.08721C24.8936 3.61399 24.1772 2.91492 23.0974 2.28755C21.5799 1.40564 19.8508 0.95752 17.9593 0.95752C16.0714 0.95752 14.3458 1.40564 12.8248 2.28755C11.6815 2.95077 10.951 3.70003 10.6193 4.08721C10.1923 4.58552 9.6453 5.27384 9.22536 6.20594C8.80543 7.13445 8.55135 8.1956 8.44548 9.4611C8.3255 10.8628 8.3749 12.2144 8.42431 13.4189C8.42431 13.4548 8.39255 13.4799 8.35726 13.4655C7.92321 13.2935 7.40446 13.0963 6.85749 12.9744C6.64223 12.9278 6.42344 12.9027 6.20818 12.9027C5.25538 12.9027 4.50373 13.3902 4.19672 14.2076C3.97087 14.8135 4.00616 15.4301 4.29553 15.9894C4.52137 16.4231 4.89896 16.8247 5.453 17.219C5.62238 17.3409 5.91881 17.5345 6.26111 17.7603C6.64576 18.0149 7.27037 18.4272 7.67266 18.7104C7.72206 18.7462 7.89145 18.8753 7.94438 19.0115C8.00084 19.1549 8.01143 19.2625 7.93732 19.5493C7.81381 19.9651 7.53503 20.718 6.94924 21.6106C6.46225 22.3599 5.85529 23.059 5.14599 23.6971C4.26377 24.4894 3.21569 25.1884 2.03352 25.7692C1.97706 25.7979 1.91001 25.8301 1.83943 25.8732C1.83943 25.8732 1.13366 26.2388 0.999559 26.7121C0.801942 27.4111 1.32774 28.0672 1.8606 28.4185C2.73576 28.9921 3.80148 29.3004 4.41904 29.4689C4.59195 29.5155 4.74722 29.5585 4.88838 29.6016C4.9766 29.6302 5.19892 29.7163 5.2942 29.8417C5.41418 29.9995 5.4283 30.1931 5.47064 30.4118C5.53769 30.781 5.68943 31.2363 6.1376 31.5518C6.63164 31.8959 7.25625 31.921 8.05025 31.9533C8.87953 31.9856 9.90996 32.025 11.0921 32.4229C11.6391 32.6058 12.1367 32.9177 12.7084 33.2762C13.9082 34.0254 15.4009 34.9575 17.9487 34.9575C20.5001 34.9575 22.0034 34.0218 23.2103 33.269C23.782 32.9141 24.2725 32.6058 24.8089 32.4265C25.991 32.0286 27.0215 31.9892 27.8508 31.9569C28.6448 31.9246 29.2694 31.9031 29.7634 31.5554C30.2433 31.2184 30.381 30.7165 30.4445 30.3401C30.4798 30.1536 30.5009 29.9851 30.6068 29.8489C30.6986 29.7306 30.9032 29.6482 30.9985 29.6159C31.1432 29.5693 31.3055 29.5263 31.4855 29.4761C32.103 29.3076 32.8794 29.1104 33.8216 28.5691C34.9579 27.913 35.0355 27.11 34.9156 26.7121Z" fill="#F9F7F3"/>
</svg>
