<svg width="31" height="35" viewBox="0 0 31 35" fill="none" xmlns="http://www.w3.org/2000/svg">
<path d="M30.952 14.7133C30.6656 14.7403 30.378 14.7545 30.0902 14.7557C28.5362 14.7559 27.0066 14.3808 25.6394 13.6643C24.2723 12.9477 23.1107 11.9123 22.2594 10.6514V24.6276C22.2594 26.6707 21.6348 28.6679 20.4644 30.3666C19.294 32.0654 17.6305 33.3894 15.6843 34.1712C13.738 34.953 11.5964 35.1576 9.53029 34.759C7.46416 34.3604 5.5663 33.3766 4.0767 31.932C2.5871 30.4873 1.57268 28.6467 1.1617 26.6429C0.750717 24.6391 0.961645 22.5621 1.76781 20.6746C2.57397 18.787 3.93916 17.1737 5.69075 16.0387C7.44233 14.9036 9.50163 14.2978 11.6082 14.2978C11.8306 14.2978 12.0479 14.3172 12.2665 14.3305V19.4209C12.0479 19.3955 11.8331 19.3567 11.6082 19.3567C10.1665 19.3567 8.78378 19.9122 7.7643 20.9009C6.74483 21.8896 6.17209 23.2306 6.17209 24.6289C6.17209 26.0271 6.74483 27.3681 7.7643 28.3568C8.78378 29.3455 10.1665 29.901 11.6082 29.901C14.6111 29.901 17.263 27.6066 17.263 24.6943L17.3154 0.95752H22.3369C22.5663 3.07351 23.5554 5.04396 25.1311 6.52434C26.7069 8.00471 28.769 8.9008 30.957 9.05593V14.7133" fill="#F9F7F3"/>
</svg>
